<svg width="719" height="685" viewBox="0 0 719 685" fill="none"
    xmlns="http://www.w3.org/2000/svg">
    <rect width="719" height="685" rx="150" fill="#0D47A1"/>
    <g filter="url(#filter0_b_0_1)">
        <path d="M582.714 191.696L262.016 253.265C256.435 254.336 254.39 261.261 258.493 265.193L334.837 338.351C338.855 342.201 336.992 348.972 331.57 350.225L148.358 392.556L11.1106 427.436C2.90937 429.52 4.75669 441.66 13.2067 441.211L270.488 427.519H572.084C577.899 427.519 581.179 420.839 577.622 416.238L513.991 333.911C510.435 329.31 513.715 322.63 519.53 322.63H702.007C708.257 322.63 711.374 315.063 706.938 310.661L588.964 193.602C587.323 191.974 584.984 191.261 582.714 191.696Z" fill="white"/>
    </g>
    <defs>
        <filter id="filter0_b_0_1" x="-4.17236" y="181.571" width="723.193" height="269.652" filterUnits="userSpaceOnUse" color-interpolation-filters="sRGB">
            <feFlood flood-opacity="0" result="BackgroundImageFix"/>
            <feGaussianBlur in="BackgroundImageFix" stdDeviation="5"/>
            <feComposite in2="SourceAlpha" operator="in" result="effect1_backgroundBlur_0_1"/>
            <feBlend mode="normal" in="SourceGraphic" in2="effect1_backgroundBlur_0_1" result="shape"/>
        </filter>
    </defs>
</svg>
